<?xml version="1.0" standalone="no"?><!-- Generator: Gravit.io --><svg xmlns="http://www.w3.org/2000/svg" xmlns:xlink="http://www.w3.org/1999/xlink" style="isolation:isolate" viewBox="1731.382 1822.927 2500 2500" width="2500" height="2500"><rect x="1731.382" y="1822.927" width="2500" height="2500" transform="matrix(1,0,0,1,0,0)" fill="none"/><path d=" M 2036.632 4188.552 C 1993.841 4188.552 1981.4 4163.637 1981.4 4126.306 C 1981.4 4113.866 1982.962 4099.829 1984.886 4085.045 C 1994.26 4020.489 2017.144 3983.553 2072.375 3983.553 C 2109.731 3983.553 2127.944 4000.261 2127.944 4030.603 L 2127.944 4045.395 L 2165.004 4045.395 C 2165.415 4045.395 2165.415 4031.779 2165.415 4028.679 C 2165.415 3984.342 2138.568 3942.292 2072.433 3942.292 C 1982.568 3942.292 1945.615 3991.11 1931.998 4086.813 C 1930.05 4099.657 1928.882 4111.645 1928.882 4124.44 C 1928.882 4180.847 1951.075 4232.157 2030.423 4232.157 C 2090.712 4232.157 2126.522 4202.761 2147.514 4166.581 L 2112.107 4142.735 C 2089.166 4178.923 2064.251 4188.552 2036.632 4188.552 L 2036.632 4188.552 Z  M 2279.776 4010.383 C 2207.794 4010.383 2176.696 4047.32 2166.196 4120.83 C 2164.963 4129.339 2164.304 4137.921 2164.223 4146.518 C 2164.223 4193.962 2186.399 4231.721 2247.847 4231.721 C 2319.828 4231.721 2351.346 4193.198 2361.846 4120.83 C 2363.013 4111.506 2363.795 4102.946 2363.795 4094.394 C 2363.811 4046.168 2340.87 4010.383 2279.776 4010.383 L 2279.776 4010.383 Z  M 2309.731 4120.855 C 2301.944 4174.162 2285.235 4190.501 2253.701 4190.501 C 2228.433 4190.501 2215.992 4179.992 2215.992 4148.483 C 2215.992 4140.696 2216.782 4131.372 2218.328 4120.855 C 2226.114 4067.958 2241.672 4051.62 2273.567 4051.62 C 2299.247 4051.62 2312.066 4062.12 2312.066 4094.016 C 2312.066 4101.795 2311.277 4110.749 2309.731 4120.855 Z  M 2544.734 3946.156 L 2532.688 4017.57 C 2531.915 4023.778 2532.31 4021.714 2534.661 4027.552 C 2523.38 4019.001 2503.136 4013.344 2489.519 4013.344 C 2424.938 4013.344 2388.775 4042.575 2377.115 4124.267 C 2375.754 4132.891 2375.102 4141.611 2375.167 4150.341 C 2375.167 4209.882 2410.17 4232.074 2457.229 4232.074 C 2477.095 4232.074 2496.533 4232.486 2511.687 4219.666 L 2515.56 4243.866 L 2552.916 4243.866 L 2596.479 3946.156 L 2544.734 3946.156 L 2544.734 3946.156 Z  M 2507.782 4179.203 C 2490.292 4189.678 2473.189 4192.047 2462.689 4192.047 C 2434.287 4192.047 2426.509 4177.254 2426.509 4153.54 C 2426.509 4144.585 2427.676 4134.11 2429.247 4122.795 C 2438.177 4060.953 2458.026 4050.041 2483.706 4050.041 C 2500.414 4050.041 2513.241 4052.779 2525.329 4059.407 L 2507.782 4179.203 L 2507.782 4179.203 Z  M 2710.084 4010.383 C 2638.875 4010.383 2605.45 4044.203 2594.152 4120.83 C 2592.968 4130.179 2592.187 4139.134 2592.187 4147.685 C 2592.187 4200.203 2619.042 4231.721 2678.147 4231.721 C 2724.054 4231.721 2758.318 4212.644 2776.588 4177.632 L 2737.292 4161.68 C 2726.027 4178.783 2710.857 4190.46 2684.01 4190.46 C 2655.23 4190.46 2643.554 4182.714 2643.554 4157.034 C 2643.554 4151.969 2643.949 4144.61 2644.73 4144.61 L 2785.14 4144.61 C 2787.113 4124.761 2789.416 4110.733 2789.416 4099.098 C 2789.416 4060.221 2774.648 4010.375 2710.084 4010.375 L 2710.084 4010.383 Z  M 2736.914 4104.936 L 2651.333 4104.936 C 2659.909 4085.086 2674.274 4054.366 2703.851 4054.366 C 2726.792 4054.366 2738.09 4067.778 2738.09 4090.727 C 2738.065 4094.616 2737.712 4104.936 2736.914 4104.936 L 2736.914 4104.936 Z  M 2939.117 4005.697 L 2943.78 3966.006 L 2834.065 3966.006 L 2829.419 4005.697 L 2858.198 4005.697 L 2827.1 4204.167 L 2798.28 4204.167 L 2793.642 4243.866 L 2903.332 4243.866 L 2908.019 4204.167 L 2879.215 4204.167 L 2910.322 4005.697 L 2939.117 4005.697 Z  M 3162.034 4065.237 L 3176.053 4025.546 L 3138.32 4025.546 L 3111.111 4031.162 C 3095.932 4021.459 3075.309 4014.174 3055.879 4014.174 C 3000.228 4014.174 2952.792 4041.046 2952.792 4102.132 C 2952.792 4119.268 2959.008 4133.098 2966.384 4142.448 C 2954.741 4148.656 2944.618 4159.057 2944.618 4173.085 C 2944.618 4179.301 2946.937 4185.666 2951.624 4191.487 C 2928.264 4205.515 2913.915 4228.761 2913.915 4255.969 C 2913.915 4308.512 2968.752 4319.72 3010.761 4319.72 C 3063.658 4319.72 3126.693 4307.632 3126.693 4240.33 C 3126.693 4217.389 3112.303 4199.463 3070.68 4191.685 L 2995.607 4177.657 C 2987.056 4176.086 2985.107 4173.365 2985.107 4169.475 C 2985.107 4163.637 2988.643 4160.546 2994.448 4160.546 L 2999.513 4161.319 C 3009.627 4163.646 3021.303 4164.83 3033.349 4164.83 C 3087.438 4164.83 3135.664 4141.477 3135.664 4080.794 C 3135.664 4072.226 3134.118 4066.429 3130.228 4057.08 C 3136.831 4060.204 3145.407 4065.261 3148.877 4065.261 L 3162.034 4065.261 L 3162.034 4065.237 L 3162.034 4065.237 Z  M 3055.082 4226.261 C 3069.849 4228.999 3074.898 4234.434 3074.898 4244.162 C 3074.898 4275.679 3041.054 4279.569 3016.558 4279.569 C 2979.211 4279.569 2965.216 4270.639 2965.216 4250.773 C 2965.216 4233.259 2970.257 4225.11 2981.949 4212.644 L 3055.082 4226.261 Z  M 3039.105 4124.366 C 3016.542 4124.366 3004.093 4116.209 3004.093 4096.738 C 3004.093 4067.958 3020.826 4051.225 3050 4051.225 C 3073.344 4051.225 3084.634 4060.953 3084.634 4079.988 C 3084.634 4108.784 3068.279 4124.366 3039.105 4124.366 L 3039.105 4124.366 Z  M 3300.232 4010.383 C 3278.442 4010.383 3259.012 4021.073 3234.878 4040.117 L 3231.384 4025.546 L 3188.576 4025.546 L 3158.629 4243.858 L 3210.366 4243.858 L 3232.938 4078.303 C 3248.117 4068.97 3266.774 4055.419 3282.726 4055.419 C 3302.164 4055.419 3309.186 4064.801 3309.186 4082.685 C 3309.186 4086.969 3308.775 4099.657 3307.994 4104.319 L 3288.959 4243.858 L 3340.704 4243.858 L 3359.739 4103.184 C 3360.529 4096.606 3361.302 4085.761 3361.302 4079.552 C 3361.326 4042.55 3343.795 4010.383 3300.232 4010.383 L 3300.232 4010.383 Z  M 3459.587 4189.169 L 3459.982 4183.824 L 3482.528 4025.546 L 3396.552 4025.546 L 3391.133 4065.237 L 3428.842 4065.237 C 3425.726 4065.237 3423.785 4068.715 3423.407 4071.848 L 3407.842 4177.262 C 3407.069 4182.336 3406.691 4192.894 3406.691 4197.145 C 3406.691 4224.37 3421.458 4243.866 3451.784 4243.866 L 3478.244 4243.866 L 3484.082 4204.167 L 3467.366 4204.167 C 3461.511 4204.167 3459.587 4193.831 3459.587 4189.169 L 3459.587 4189.169 Z  M 3493.028 3946.156 L 3442.459 3946.156 C 3439.343 3946.156 3439.343 3934.702 3438.965 3938.591 L 3431.942 3994.522 C 3431.539 3998.041 3431.539 4005.705 3434.656 4005.705 L 3485.25 4005.705 C 3488.366 4005.705 3488.366 3992.104 3488.744 3988.569 L 3495.767 3945.4 C 3496.161 3941.51 3496.161 3946.156 3493.028 3946.156 Z  M 3598.533 4190.492 C 3585.714 4190.492 3579.481 4185.041 3579.481 4173.389 L 3579.876 4172.592 L 3596.215 4065.237 L 3655.335 4065.237 L 3673.22 4025.546 L 3601.65 4025.546 L 3613.696 3938.197 L 3559.262 3955.604 L 3549.518 4025.546 L 3518.017 4025.546 L 3512.582 4065.237 L 3549.14 4065.237 C 3545.645 4085.086 3542.134 4072.21 3541.756 4076.115 L 3527.745 4170.248 C 3526.972 4174.541 3526.972 4177.649 3526.972 4181.522 C 3526.972 4218.482 3554.197 4232.313 3586.907 4232.313 C 3617.232 4232.313 3641.743 4223.457 3660.82 4207.48 L 3636.686 4177.797 C 3624.599 4185.172 3616.442 4190.492 3598.533 4190.492 L 3598.533 4190.492 Z  M 3788.37 4010.383 C 3717.186 4010.383 3683.737 4044.203 3672.447 4120.83 C 3671.279 4130.179 3670.498 4139.134 3670.498 4147.685 C 3670.498 4200.203 3697.337 4231.721 3756.458 4231.721 C 3802.365 4231.721 3836.629 4212.644 3854.883 4177.632 L 3815.603 4161.68 C 3804.338 4178.783 3789.151 4190.46 3762.296 4190.46 C 3733.533 4190.46 3721.84 4182.714 3721.84 4157.034 C 3721.84 4151.969 3722.26 4144.61 3723.041 4144.61 L 3863.459 4144.61 C 3865.4 4124.761 3867.735 4110.733 3867.735 4099.098 C 3867.735 4060.221 3852.959 4010.375 3788.37 4010.375 L 3788.37 4010.383 Z  M 3815.225 4104.936 L 3729.644 4104.936 C 3738.195 4085.086 3752.568 4054.366 3782.162 4054.366 C 3805.103 4054.366 3816.401 4067.778 3816.401 4090.727 C 3816.376 4094.616 3815.998 4104.936 3815.225 4104.936 L 3815.225 4104.936 Z  M 4010.9 4010.375 C 3992.226 4010.375 3974.72 4021.081 3957.206 4037.773 L 3954.097 4025.546 L 3911.323 4025.546 L 3881.36 4243.858 L 3933.491 4243.858 L 3956.433 4074.8 C 3970.058 4066.651 3985.615 4059.686 4000.399 4059.686 C 4009.748 4059.686 4018.678 4058.198 4027.23 4059.358 L 4033.882 4014.256 C 4026.062 4012.702 4018.284 4010.383 4010.9 4010.383 L 4010.9 4010.375 Z  M 2689.807 3789.786 C 2572.058 3738.888 2461.874 3609.529 2461.611 3477.169 C 2461.291 3332.861 2552.743 3210.344 2666.487 3129.827 C 2652.813 3181.49 2645.355 3228.746 2679.232 3274.957 C 2710.725 3317.921 2765.883 3338.798 2817.965 3327.467 C 2939.66 3300.826 2945.243 3167.043 2873.098 3089.101 C 2801.766 3011.914 2732.762 2924.73 2759.913 2812.795 C 2773.505 2756.683 2807.958 2704.124 2851.604 2666.555 C 2818.055 2754.718 2913.389 2841.664 2976.202 2884.973 C 3085.16 2960.112 3204.709 3016.897 3304.894 3104.979 C 3410.276 3197.549 3488.095 3322.714 3472.381 3467.885 C 3455.352 3625.234 3330.319 3734.67 3190.073 3789.918 C 3486.434 3724.506 3792.654 3494.494 3798.928 3165.818 C 3804.124 2895.416 3618.63 2687.317 3388.847 2568.179 L 3376.842 2561.625 C 3383.149 2576.928 3385.213 2589.944 3384.975 2601.596 C 3387.03 2593.003 3388.428 2584.172 3388.823 2575.061 C 3388.767 2585.885 3387.352 2596.658 3384.613 2607.13 L 3384.975 2601.596 C 3381.563 2615.952 3375.815 2629.649 3367.962 2642.142 L 3371.333 2638.515 C 3325.492 2714.55 3201.387 2731.061 3140.079 2652.33 C 3041.522 2525.684 3142.143 2389.139 3156.22 2255.027 C 3173.841 2086.948 3068.435 1923.778 2937.744 1826.133 C 3009.725 1942.574 2914.894 2096.626 2839.023 2182.75 C 2765.455 2266.235 2675.984 2335.938 2594.769 2411.792 C 2507.527 2493.262 2423.656 2579.082 2351.946 2674.703 C 2208.526 2866.094 2120.725 3106.804 2185.248 3345.573 C 2249.73 3584.178 2456.415 3736.067 2689.815 3789.778 L 2689.807 3789.786 Z " fill="rgb(238,67,35)"/></svg>