<?xml version="1.0" standalone="no"?><!-- Generator: Gravit.io --><svg xmlns="http://www.w3.org/2000/svg" xmlns:xlink="http://www.w3.org/1999/xlink" style="isolation:isolate" viewBox="985.5 467 2500 2500" width="2500" height="2500"><rect x="985.5" y="467" width="2500" height="2500" transform="matrix(1,0,0,1,0,0)" fill="none"/><g id="logo-php"><path d=" M 985.5 1717 C 985.5 1357.878 1545.606 1066.316 2235.5 1066.316 C 2925.394 1066.316 3485.5 1357.878 3485.5 1717 C 3485.5 2076.122 2925.394 2367.684 2235.5 2367.684 C 1545.606 2367.684 985.5 2076.122 985.5 1717 Z " fill="rgb(137,147,190)"/><path d=" M 1336.525 2102.273 L 1473.518 1408.777 L 1790.285 1408.777 C 1927.268 1417.342 1995.764 1485.828 1995.764 1605.701 C 1995.764 1811.18 1833.098 1931.043 1687.541 1922.479 L 1533.449 1922.479 L 1499.201 2102.273 L 1336.525 2102.273 Z  M 1567.687 1794.061 L 1610.5 1537.205 L 1721.799 1537.205 C 1781.73 1537.205 1824.533 1562.889 1824.533 1614.256 C 1815.979 1759.813 1747.482 1785.496 1670.432 1794.061 L 1567.697 1794.061 L 1567.687 1794.061 Z  M 1963.937 1922.479 L 2100.92 1228.992 L 2263.596 1228.992 L 2229.348 1408.777 L 2383.449 1408.777 C 2520.441 1417.342 2571.809 1485.828 2554.689 1571.453 L 2494.758 1922.479 L 2323.527 1922.479 L 2383.459 1605.701 C 2392.014 1562.889 2392.014 1537.205 2332.092 1537.205 L 2203.664 1537.205 L 2126.613 1922.479 L 1963.937 1922.479 L 1963.937 1922.479 Z  M 2483.791 2102.273 L 2620.773 1408.777 L 2937.551 1408.777 C 3074.543 1417.342 3143.039 1485.828 3143.039 1605.701 C 3143.039 1811.18 2980.363 1931.043 2834.816 1922.479 L 2680.705 1922.479 L 2646.457 2102.273 L 2483.791 2102.273 L 2483.791 2102.273 Z  M 2714.943 1794.061 L 2757.756 1537.205 L 2869.064 1537.205 C 2928.996 1537.205 2971.799 1562.889 2971.799 1614.256 C 2963.244 1759.812 2894.748 1785.496 2817.697 1794.061 L 2714.953 1794.061 L 2714.943 1794.061 Z " fill-rule="evenodd" fill="rgb(35,37,49)"/></g></svg>